<svg version="1.1" id="Layer_1" xmlns="http://www.w3.org/2000/svg" xmlns:xlink="http://www.w3.org/1999/xlink" x="0px" y="0px"
	 width="100%" viewBox="0 0 368 352" enable-background="new 0 0 368 352" xml:space="preserve">
<path fill="#000000" opacity="1.000000" stroke="none" 
	d="
M158.000702,247.648911 
	C184.820496,247.631836 211.147842,247.999298 237.457840,247.483170 
	C264.255554,246.957489 291.049835,247.183319 317.842316,247.165482 
	C326.408020,247.159775 335.064880,247.382980 343.630157,249.384827 
	C350.615143,251.017349 356.776489,261.014557 356.205566,267.852600 
	C355.465057,276.721436 349.611023,283.348480 341.367920,284.588562 
	C331.123230,286.129761 320.761688,284.887665 310.479156,285.905823 
	C307.252655,286.225281 304.889221,286.981415 302.859436,289.652344 
	C292.186432,303.696655 281.221924,317.521210 270.664917,331.650940 
	C266.726349,336.922363 262.279968,340.013306 255.483032,340.676025 
	C246.483597,341.553436 237.506866,341.334198 228.528305,341.420227 
	C197.383820,341.718750 166.235077,342.030884 135.092667,341.771912 
	C127.212708,341.706390 119.140549,343.115936 111.318771,340.300385 
	C107.244545,338.833832 103.981758,336.721649 101.408150,333.183990 
	C90.935425,318.788239 80.285538,304.521423 69.791939,290.140686 
	C67.158775,286.532135 63.582615,285.532623 59.417240,285.179504 
	C49.791443,284.363434 40.116959,286.017487 30.508623,284.415863 
	C22.329937,283.052551 16.653109,276.681885 15.962645,267.820679 
	C15.382547,260.375916 21.069592,251.474686 27.834675,249.454941 
	C37.728622,246.501053 47.995472,247.249710 58.080547,247.058105 
	C79.894653,246.643692 101.727928,246.714722 123.543541,247.118286 
	C134.861801,247.327667 146.179276,247.593582 158.000702,247.648911 
M174.500031,286.054749 
	C156.701645,285.922699 138.903198,285.798370 121.104942,285.650818 
	C118.191933,285.626678 116.412521,286.534454 117.655151,289.809845 
	C120.255569,296.664124 126.792526,301.103058 134.089432,301.082397 
	C165.869797,300.992371 197.655594,300.552429 229.426971,301.044067 
	C238.028503,301.177155 245.383820,300.962341 250.735138,293.262482 
	C251.913345,291.567200 254.603668,290.570557 253.939301,288.100525 
	C253.161453,285.208557 250.370316,286.272156 248.379684,286.262756 
	C224.086670,286.148651 199.793304,286.113007 174.500031,286.054749 
z"/>
<path fill="#000000" opacity="1.000000" stroke="none" 
	d="
M269.460907,77.661308 
	C275.724091,103.885582 273.986267,128.668427 258.873352,151.290131 
	C248.912720,166.199677 235.654037,177.770660 218.582550,183.470047 
	C208.689163,186.772964 203.799194,193.362808 199.969269,201.974548 
	C197.064758,208.505417 193.824265,214.886230 190.786499,221.358810 
	C189.644363,223.792358 188.124908,225.606476 185.174301,225.514709 
	C182.402115,225.428482 181.887817,223.119247 180.942551,221.198303 
	C176.902603,212.988510 172.621368,204.889511 168.839767,196.563126 
	C165.922562,190.139969 161.077301,186.718552 154.553802,184.511185 
	C119.494370,172.648071 98.287537,135.324997 97.476402,103.393394 
	C96.588036,68.421204 123.022598,30.423727 156.214432,19.632959 
	C179.343170,12.113737 202.586044,12.915294 224.638763,24.284687 
	C246.803009,35.711575 262.284821,52.996674 269.460907,77.661308 
M171.574722,56.090847 
	C144.312637,63.077396 133.112564,89.839455 137.220154,110.770744 
	C145.324158,152.066803 189.956268,159.897659 214.539673,142.286331 
	C232.903687,129.130524 238.139389,103.055389 231.683990,84.266243 
	C224.268326,62.682198 196.819717,47.663147 171.574722,56.090847 
z"/>
<path fill="#000000" opacity="1.000000" stroke="none" 
	d="
M168.791000,77.668182 
	C182.543793,68.514809 201.247208,72.447670 210.395737,86.120476 
	C219.570221,99.832092 216.132477,116.808563 202.622391,126.509445 
	C188.568787,136.600616 174.462997,133.257370 164.397461,122.994751 
	C154.024811,112.419014 152.697433,96.105011 161.370148,84.792336 
	C163.360016,82.196747 166.112823,80.186050 168.791000,77.668182 
z"/>
</svg>